<?xml version="1.0" encoding="utf-8"?>
<!-- Generator: Adobe Illustrator 24.0.1, SVG Export Plug-In . SVG Version: 6.00 Build 0)  -->
<svg version="1.1" id="Layer_1" xmlns="http://www.w3.org/2000/svg" xmlns:xlink="http://www.w3.org/1999/xlink" x="0px" y="0px"
	 viewBox="0 0 411 124" style="enable-background:new 0 0 411 124;" xml:space="preserve">
<style type="text/css">
	.st0{fill:#4455AB;}
	.st1{fill:#F7E0E9;}
	.st2{enable-background:new    ;}
</style>
<title>logo_covid</title>
<path class="st0" d="M62.4,115.3h-4.3c-0.4-0.2-0.8-0.4-1.3-0.7c-4.8-2.3-6.5-7.7-3.6-12c1-1.5,2.8-2.6,4.3-3.7
	c3.2-2.3,3.7-4.2,2.2-8.1c-1.8-4.4-3.9-5.9-7.6-5.1c-1.6,0.4-3.1,1.1-4.5,2.1c-3.2,2.3-3.8,5.9-4.5,9.5s-3,5.7-6.4,5.6
	c-3.1-0.1-5.6-2.4-6-5.4c-0.4-3.4,1.3-5.7,5-6.7c7.5-1.9,9.5-7.8,4.5-13.6c-0.6-0.9-1.8-1.3-2.9-0.8c-4,1.2-6.4,4.3-9,7.3
	s-5.5,3.2-8.9,2.2c-3.6-1.1-5.2-3.9-5.5-7.4c-0.3-3.1,1.3-6.1,4.1-7.6c2.8-1.6,5.5-1.8,8.3,0.2c2,1.5,6.7,1.3,8.6-0.3
	c0.4-0.3,0.7-0.8,0.8-1.3c0.1-5.7-2.8-9.2-8.5-9.5c-2.9-0.2-5.9,0.6-8.9,1.2c-3.5,0.8-6.5-0.3-7.9-3.2c-1.3-2.7-0.4-5.9,2-7.7
	c2.5-1.9,5.5-1.7,8.2,0.6c3.1,2.6,7.2,3.8,11.2,3.2c5.6-0.8,7.9-6.5,4.5-11c-2.5-3-5.6-5.5-9.2-7.1c-4.1-2-5.9-6.8-4.1-11
	c1.7-3.8,5.9-5.8,9.9-4.7c4.3,1.1,6.9,5.3,6,9.6c-0.8,3.8,0.9,6.7,3.2,9.4c1.2,1.6,3.3,2,5,0.9c2-1.1,4.1-2,6.3-2.8
	c3-1,4.2-2.2,3.4-5.3c-1.1-3.9-2.4-7.7-4-11.5c-1.5-3.7-1.9-7.2,0.9-10.3c1.2-1.1,2.6-2,4.1-2.8h4.2c0.3,0.2,0.5,0.3,0.8,0.5
	c6.3,2.9,7.3,9.3,2.2,14.1c-2.2,2.1-3.4,5-3.2,8c0,4.5,1.3,6,5.4,7.4c0.6,0.3,1.3,0.5,2,0.7c1.1,0.1,2.5,0.3,3.3-0.3
	c0.5-0.4,0.3-2,0.1-3c-1-3.8,0.8-8.3,4.4-9.9c4.1-2.1,9.1-0.4,11.2,3.7c1,2,1.1,4.3,0.4,6.4c-1,3.4-4.2,5.8-7.8,5.6
	c-1.7,0.1-3.1,0.4-3.6,2c1.8,2.7,3.5,5.3,5.3,7.7c0.5,0.6,1.2,1,1.9,1.2c3.9,1.1,7.3-0.4,10-4.3c1.7-2.4,4-2.6,6.6-2.2
	c2.2,0.2,4.1,1.9,4.5,4.1c0.7,2.3-0.3,4.8-2.5,6c-1.9,0.8-4,1.3-6.1,1.3c-2.5,0.2-5.1-0.1-7.6,0.2c-1.5,0.2-3.7,1-4,2
	c-0.8,2.6-0.8,5.5-0.9,8.2c0,0.3,0.7,0.7,1,0.9c4,3,7.9,5,13.2,2.5c4.2-2,9,0.5,10.8,4.9c1.9,3.9,0.3,8.7-3.5,10.7
	c-4.2,2.2-8.7,0.9-11.4-3.2c-2.2-3.3-4.7-6.3-8.5-7.9c-2.1-0.9-3.9-0.8-5.3,1.5c-1.7,2.6-1.6,5.3-1.4,8c0.1,1.7,1,2.4,2.8,2.7
	c4.6,0.4,8,4.4,7.5,9s-4.4,8-9,7.5c-4.4-0.1-7.9-3.8-7.8-8.2c0-0.1,0-0.1,0-0.2c0-2.2,0.3-4.4,0.5-6.7c0.3-2.9-1.2-4.3-3.9-3.6
	c-3.6,0.9-4.1,1.4-3.6,5.2s1.4,7.6,2.3,11.5C69.5,109.1,68.4,112,62.4,115.3z M55.5,61.1c4.5,0.1,8.2-3.5,8.2-8c0,0,0-0.1,0-0.1
	c-0.1-4.5-3.7-8.1-8.3-8.2c-4.5,0.1-8.1,3.8-8.1,8.3c0,0,0,0,0,0.1C47.5,57.6,51.1,61.1,55.5,61.1C55.5,61.1,55.5,61.1,55.5,61.1z
	 M72,72.1c0-3.3-2.7-6.1-6-6.2c-3.4,0.1-6.1,3-5.9,6.4c0.1,3.2,2.7,5.8,5.9,5.9C69.3,78.2,72,75.5,72,72.1z M47.5,69.7
	c0,2.5,1.5,3.9,4.1,3.9c2.2,0,4-1.8,4-4c0,0,0-0.1,0-0.1c-0.2-2.2-2-3.9-4.3-4C49.1,65.6,47.4,67.5,47.5,69.7
	C47.5,69.7,47.5,69.7,47.5,69.7L47.5,69.7z"/>
<path class="st0" d="M135,29.4c0.1-11.8,10-21.4,21.9-21.5c5,0,9.8,1.6,13.8,4.6c1.4,1.2,1.7,3.3,0.6,4.8c-1.2,1.5-3.3,1.7-4.8,0.6
	c-2.7-2.2-6.1-3.3-9.6-3.3c-4,0-7.8,1.5-10.7,4.3c-2.8,2.8-4.3,6.5-4.3,10.4c0,3.9,1.6,7.6,4.4,10.4c2.9,2.7,6.7,4.3,10.7,4.3
	c3.5,0.1,6.9-1.1,9.6-3.3c1.5-1,3.6-0.7,4.8,0.7c1.1,1.5,0.8,3.6-0.6,4.8c-3.9,3.1-8.8,4.7-13.8,4.7C144.9,50.9,135.2,41.3,135,29.4
	z"/>
<path class="st0" d="M214.5,14.3c8,8.5,8,21.7,0,30.2c-3.7,4-8.8,6.3-14.3,6.4c-5.5,0-10.8-2.3-14.6-6.4c-3.8-4.1-6-9.5-5.9-15.1
	c0-5.6,2.1-11,5.9-15.1c3.8-4.1,9.1-6.4,14.6-6.4C205.7,8,210.9,10.3,214.5,14.3z M213.8,29.4c0-3.9-1.4-7.6-4-10.4
	c-4.8-5.3-12.9-5.7-18.1-0.9c-0.3,0.3-0.6,0.6-0.9,0.9c-2.6,2.8-4,6.6-4,10.4c0,3.8,1.4,7.6,4,10.4c4.7,5.3,12.7,5.8,18,1.1
	c0.4-0.3,0.7-0.7,1.1-1.1C212.4,36.9,213.8,33.2,213.8,29.4z"/>
<path class="st0" d="M243.5,50.3c-0.1-0.1-0.3-0.2-0.4-0.3c0-0.1-0.1-0.1-0.1-0.2c-0.1-0.1-0.2-0.2-0.3-0.4c0,0-0.1,0-0.1-0.1
	c-0.1-0.2-0.2-0.3-0.3-0.5l-14.6-34.8c-0.7-1.6,0-3.5,1.7-4.2c0,0,0.1,0,0.1-0.1c1.6-0.7,3.5,0.1,4.2,1.7c0,0,0,0,0,0l11.6,27.6
	L257,11.6c0.7-1.7,2.7-2.4,4.3-1.7c1.6,0.7,2.4,2.5,1.7,4.2l-14.7,34.8c-0.1,0.2-0.1,0.3-0.2,0.5c0,0.1,0,0.1-0.1,0.1
	s-0.2,0.2-0.3,0.4c0,0.1-0.1,0.1-0.1,0.2c-0.1,0.1-0.2,0.2-0.4,0.3l-0.1,0.1c-0.1,0.1-0.3,0.2-0.5,0.3c-0.1,0-0.1,0-0.1,0.1
	c-0.2,0-0.3,0.1-0.5,0.1H246c-0.2,0-0.4,0.1-0.6,0.1c-0.2,0-0.4,0-0.6-0.1h-0.1c-0.2-0.1-0.3-0.1-0.5-0.1c0,0,0-0.1-0.1-0.1h-0.1
	C244,50.6,243.7,50.4,243.5,50.3L243.5,50.3z"/>
<path class="st0" d="M272.1,12.4c0-1.8,1.4-3.3,3.2-3.3c0,0,0.1,0,0.1,0c1.8,0,3.3,1.5,3.3,3.3v35.2c0,1.8-1.5,3.3-3.3,3.3
	c-1.8,0-3.3-1.4-3.3-3.2c0,0,0-0.1,0-0.1V12.4z"/>
<path class="st0" d="M289.9,47.6V12.4c0-1.8,1.4-3.3,3.2-3.3c0,0,0.1,0,0.1,0h7c11.5,0,20.9,9.3,20.9,20.9s-9.3,20.9-20.9,20.9l0,0
	h-7C291.3,50.9,289.9,49.4,289.9,47.6L289.9,47.6z M296.5,44.3h3.7c7.9,0,14.3-6.4,14.3-14.3s-6.4-14.3-14.3-14.3h-3.7V44.3z"/>
<path class="st0" d="M330.5,32.6c0-2,1.6-3.6,3.5-3.6c0,0,0,0,0,0h11.2c2,0,3.5,1.6,3.5,3.6c0,2-1.6,3.5-3.5,3.5H334
	C332.1,36.1,330.5,34.6,330.5,32.6z"/>
<path class="st0" d="M365.3,12.4v35.2c0,1.8-1.5,3.3-3.3,3.3c-1.8,0-3.3-1.4-3.3-3.2c0,0,0-0.1,0-0.1V18.3l-2.4,1.4
	c-0.5,0.3-1.1,0.5-1.7,0.5c-1.2,0-2.2-0.6-2.8-1.7c-0.9-1.5-0.5-3.4,1-4.4c0,0,0.1,0,0.1-0.1l7.3-4.4c0.1-0.1,0.2-0.1,0.2-0.1
	s0.2-0.1,0.3-0.2s0.2-0.1,0.4-0.1c0.1,0,0.2-0.1,0.2-0.1c0.1,0,0.3-0.1,0.4-0.1h0.7c0.1,0,0.2,0.1,0.2,0.1c0.1,0,0.3,0,0.4,0.1
	c0.1,0,0.2,0,0.2,0.1c0.2,0.1,0.2,0.2,0.4,0.2c0.1,0.1,0.1,0.1,0.2,0.2c0.1,0,0.2,0.1,0.2,0.2s0.2,0.2,0.2,0.2
	c0.1,0.1,0.1,0.1,0.2,0.2l0.2,0.2l0.1,0.1c0,0.1,0.1,0.1,0.1,0.2s0.1,0.2,0.1,0.3s0.1,0.2,0.1,0.3c0,0.1,0,0.2,0.1,0.3
	c0,0.2,0,0.3,0.1,0.4L365.3,12.4z"/>
<path class="st0" d="M373,23.6c0-8,6.5-14.5,14.5-14.4c7.4,0,13.6,5.6,14.4,13c0,0.1,0,0.1,0.1,0.1c0.1,1.1,0.1,2.3,0.1,3.4
	c0,4.2-0.7,8.3-2.1,12.2c-1.4,4.1-4.1,7.7-7.7,10.2c-2.7,1.8-5.8,2.7-8.9,2.8c-1.8,0.1-3.4-1.3-3.5-3.2c0-1.8,1.4-3.3,3.2-3.5
	c2,0,3.9-0.6,5.6-1.7c1.6-1.1,2.9-2.5,3.8-4.2c0.3-0.5,0.6-1,0.8-1.5c-1.8,0.8-3.8,1.2-5.7,1.2C379.5,38,373,31.5,373,23.6z
	 M379.6,23.6c0,4.3,3.5,7.8,7.8,7.8c4.3,0,7.8-3.5,7.8-7.8c0,0,0,0,0,0c0-4.3-3.5-7.8-7.8-7.8C383.1,15.7,379.6,19.2,379.6,23.6z"/>
<rect x="135" y="68" class="st1" width="267" height="48"/>
<g class="st2">
	<path class="st0" d="M152.3,91.9c0-6.3,5.3-11.5,11.7-11.5c2.8,0,5.4,0.9,7.4,2.5c0.8,0.6,0.9,1.8,0.3,2.6
		c-0.6,0.8-1.8,0.9-2.6,0.4c-1.4-1.2-3.2-1.8-5.2-1.8c-2.2,0-4.3,0.9-5.8,2.3c-1.4,1.5-2.3,3.4-2.3,5.6s0.9,4.2,2.3,5.6
		c1.5,1.4,3.6,2.3,5.8,2.3c2,0,3.7-0.6,5.2-1.8c0.7-0.5,1.9-0.4,2.6,0.4c0.6,0.8,0.4,2-0.3,2.6c-2,1.6-4.6,2.5-7.4,2.5
		C157.6,103.4,152.3,98.2,152.3,91.9z"/>
</g>
<g class="st2">
	<path class="st0" d="M194.9,83.8c2,2.1,3.2,4.9,3.2,8.1c0,3.2-1.2,6-3.2,8.1c-1.9,2.1-4.7,3.4-7.6,3.4c-3.1,0-5.9-1.3-7.8-3.4
		c-2-2.1-3.2-4.9-3.2-8.1c0-3.2,1.2-6,3.2-8.1c2-2.1,4.8-3.4,7.8-3.4C190.2,80.4,193.1,81.7,194.9,83.8z M194.5,91.9
		c0-2.2-0.9-4.2-2.2-5.6c-1.3-1.4-3.1-2.3-5.1-2.3c-2,0-3.8,0.8-5.2,2.3c-1.3,1.4-2.2,3.4-2.2,5.6s0.8,4.2,2.2,5.6
		c1.3,1.4,3.1,2.3,5.2,2.3c1.9,0,3.7-0.9,5.1-2.3C193.7,96.1,194.5,94.1,194.5,91.9z"/>
</g>
<g class="st2">
	<path class="st0" d="M219.3,100.7c0.3,0.9-0.2,1.9-1.1,2.2c-0.1,0-0.4,0.1-0.7,0.1c0,0,0,0,0,0c-0.3,0-0.8-0.1-1.2-0.4
		c-0.4-0.3-0.8-0.7-1-1.1c-0.4-0.9-0.7-2.1-0.7-3.8c0-0.6-0.2-1-0.4-1.4c-0.2-0.4-0.6-0.7-1-0.9c-0.7-0.4-1.5-0.7-1.8-0.8h-3.8v6.9
		c0,1-0.8,1.8-1.8,1.8c-1,0-1.8-0.8-1.8-1.8V82.8c0-1,0.8-1.8,1.8-1.8c0,0,0,0,0,0h5.7c3.8,0,6.8,3.1,6.8,6.9c0,2.1-1,4-2.5,5.2
		c0.4,0.3,0.8,0.7,1.1,1.2c0.6,0.9,1.1,2.1,1.1,3.5c0,1,0.1,1.6,0.1,1.9C218.7,99.8,219.1,100.2,219.3,100.7z M214.8,87.9
		c0-1.9-1.5-3.3-3.3-3.3h-3.9v6.6h3.9C213.3,91.1,214.8,89.7,214.8,87.9z"/>
</g>
<g class="st2">
	<path class="st0" d="M241.6,83.8c2,2.1,3.2,4.9,3.2,8.1c0,3.2-1.2,6-3.2,8.1c-1.9,2.1-4.7,3.4-7.6,3.4c-3.1,0-5.9-1.3-7.8-3.4
		c-2-2.1-3.2-4.9-3.2-8.1c0-3.2,1.2-6,3.2-8.1c2-2.1,4.8-3.4,7.8-3.4C236.9,80.4,239.7,81.7,241.6,83.8z M241.2,91.9
		c0-2.2-0.9-4.2-2.2-5.6c-1.3-1.4-3.1-2.3-5.1-2.3c-2,0-3.8,0.8-5.2,2.3c-1.3,1.4-2.2,3.4-2.2,5.6s0.8,4.2,2.2,5.6
		c1.3,1.4,3.1,2.3,5.2,2.3c1.9,0,3.7-0.9,5.1-2.3C240.3,96.1,241.2,94.1,241.2,91.9z"/>
</g>
<g class="st2">
	<path class="st0" d="M253.8,101.6c0,1-0.8,1.8-1.7,1.8c-1,0-1.8-0.8-1.8-1.8V83c0,0,0,0,0,0c0-0.5,0.2-1.1,0.7-1.5
		c0.8-0.5,1.9-0.4,2.4,0.4l10.3,14.3V83c0-0.9,0.8-1.7,1.7-1.7c1,0,1.8,0.8,1.8,1.7v18.6c0,1-0.8,1.8-1.8,1.8c-0.5,0-1-0.3-1.3-0.6
		c-0.1-0.1-0.1-0.1-0.2-0.2l-10.2-14.2V101.6z"/>
</g>
<g class="st2">
	<path class="st0" d="M286.4,98.1h-7.8l-1.6,4.2c-0.3,0.7-1,1.1-1.7,1.1c-0.2,0-0.4,0-0.6-0.1c-0.9-0.4-1.4-1.4-1.1-2.3l7.1-18.8
		c0.3-0.7,1-1.2,1.7-1.1c0.7,0,1.4,0.4,1.7,1.1l7.1,18.8c0.3,0.9-0.1,2-1.1,2.3c-0.2,0.1-0.4,0.1-0.6,0.1c-0.7,0-1.4-0.4-1.6-1.1
		L286.4,98.1z M285.1,94.6l-2.6-6.9l-2.6,6.9H285.1z"/>
</g>
<g class="st2">
	<path class="st0" d="M300.1,103.1c-0.1-0.1-0.1-0.1-0.2-0.2c0,0,0,0,0-0.1c-0.1-0.1-0.1-0.1-0.2-0.2c0,0,0,0,0,0
		c0-0.1-0.1-0.2-0.2-0.3l-7.8-18.7c-0.4-0.9,0-1.9,1-2.3c0.9-0.4,1.9,0,2.3,0.9l6.2,14.8l6.2-14.8c0.4-0.9,1.4-1.3,2.3-0.9
		c0.9,0.4,1.3,1.4,1,2.3l-7.9,18.7c0,0.1-0.1,0.2-0.1,0.3c0,0,0,0,0,0c0,0.1-0.1,0.1-0.2,0.2c0,0.1,0,0.1-0.1,0.1
		c-0.1,0.1-0.1,0.1-0.2,0.2c0,0,0,0-0.1,0c-0.1,0-0.2,0.1-0.3,0.2c0,0,0,0-0.1,0c-0.1,0-0.2,0-0.3,0.1c0,0,0,0-0.1,0
		c-0.1,0-0.2,0-0.3,0c-0.1,0-0.2,0-0.3,0c0,0,0,0-0.1,0c-0.1,0-0.2-0.1-0.3-0.1c0,0,0,0,0,0s0,0,0,0
		C300.3,103.2,300.2,103.1,300.1,103.1C300.1,103.1,300.1,103.1,300.1,103.1z"/>
</g>
<g class="st2">
	<path class="st0" d="M315.4,82.8c0-1,0.8-1.8,1.8-1.8c1,0,1.8,0.8,1.8,1.8v18.9c0,1-0.8,1.8-1.8,1.8c-1,0-1.8-0.8-1.8-1.8V82.8z"/>
</g>
<g class="st2">
	<path class="st0" d="M339.7,100.7c0.3,0.9-0.2,1.9-1.1,2.2c-0.1,0-0.4,0.1-0.7,0.1c0,0,0,0,0,0c-0.3,0-0.8-0.1-1.2-0.4
		c-0.4-0.3-0.8-0.7-1-1.1c-0.4-0.9-0.7-2.1-0.7-3.8c0-0.6-0.2-1-0.4-1.4c-0.2-0.4-0.6-0.7-1-0.9c-0.7-0.4-1.5-0.7-1.8-0.8H328v6.9
		c0,1-0.8,1.8-1.8,1.8c-1,0-1.8-0.8-1.8-1.8V82.8c0-1,0.8-1.8,1.8-1.8c0,0,0,0,0,0h5.7c3.8,0,6.8,3.1,6.8,6.9c0,2.1-1,4-2.5,5.2
		c0.4,0.3,0.8,0.7,1.1,1.2c0.6,0.9,1.1,2.1,1.1,3.5c0,1,0.1,1.6,0.1,1.9C339.1,99.8,339.6,100.2,339.7,100.7z M335.3,87.9
		c0-1.9-1.5-3.3-3.3-3.3H328v6.6h3.9C333.8,91.1,335.3,89.7,335.3,87.9z"/>
</g>
<g class="st2">
	<path class="st0" d="M352.3,103.4c-5.2,0-9.2-4.2-9.2-9.2V82.8c0-1,0.8-1.8,1.8-1.8c1,0,1.8,0.8,1.8,1.8v11.4
		c0,3.1,2.6,5.7,5.7,5.7c3.2,0,5.7-2.6,5.7-5.7V82.8c0-1,0.8-1.8,1.8-1.8s1.8,0.8,1.8,1.8v11.4C361.5,99.2,357.4,103.4,352.3,103.4z
		"/>
	<path class="st0" d="M368.4,97.8c0.6-0.7,1.6-0.8,2.3-0.2c1.4,1.2,3.8,2.5,6.1,2.5c1.6,0,3-0.5,4-1.2s1.4-1.5,1.4-2.3
		c0-0.4-0.1-0.7-0.3-1c-0.2-0.3-0.5-0.6-1-1c-0.9-0.6-2.5-1.2-4.4-1.5h-0.1c-1.5-0.3-2.9-0.7-4.1-1.2c-1.2-0.6-2.3-1.4-3-2.5
		c-0.5-0.8-0.7-1.7-0.7-2.6c0-1.9,1.1-3.6,2.6-4.7c1.5-1.1,3.5-1.7,5.5-1.7c3.1,0,5.3,1.5,7,2.6c0.7,0.5,1,1.5,0.4,2.3
		c-0.5,0.8-1.5,1-2.3,0.5c-1.6-1.1-3.2-2-5.2-2c-1.4,0-2.7,0.4-3.6,1.1s-1.2,1.3-1.2,2c0,0.4,0.1,0.6,0.2,0.9
		c0.2,0.3,0.4,0.5,0.9,0.8c0.8,0.6,2.3,1.1,4,1.4h0.1c1.6,0.3,3.1,0.7,4.4,1.3c1.3,0.6,2.5,1.5,3.2,2.7c0.5,0.8,0.8,1.7,0.8,2.7
		c0,2-1.2,3.8-2.8,5c-1.6,1.2-3.6,1.8-5.9,1.8c-3.5,0-6.4-1.8-8.2-3.2C367.9,99.6,367.8,98.5,368.4,97.8z"/>
</g>
</svg>
